<?xml version="1.0" encoding="utf-8" standalone="no"?>
<!DOCTYPE svg PUBLIC "-//W3C//DTD SVG 1.1//EN"
  "http://www.w3.org/Graphics/SVG/1.1/DTD/svg11.dtd">
<svg height="755.28pt" version="1.1" viewBox="0 0 1474.56 755.28" width="1474.56pt" xmlns="http://www.w3.org/2000/svg" xmlns:xlink="http://www.w3.org/1999/xlink">
 <metadata>
  <rdf:RDF xmlns:cc="http://creativecommons.org/ns#" xmlns:dc="http://purl.org/dc/elements/1.1/" xmlns:rdf="http://www.w3.org/1999/02/22-rdf-syntax-ns#">
   <cc:Work>
    <dc:type rdf:resource="http://purl.org/dc/dcmitype/StillImage"/>
    <dc:date>2021-09-01T17:55:17.556845</dc:date>
    <dc:format>image/svg+xml</dc:format>
    <dc:creator>
     <cc:Agent>
      <dc:title>Matplotlib v3.4.3, https://matplotlib.org/</dc:title>
     </cc:Agent>
    </dc:creator>
   </cc:Work>
  </rdf:RDF>
 </metadata>
 <defs>
  <style type="text/css">*{stroke-linecap:butt;stroke-linejoin:round;}</style>
 </defs>
 <g id="figure_1">
  <g id="patch_1">
   <path d="M 0 755.28 
L 1474.56 755.28 
L 1474.56 0 
L 0 0 
z
" style="fill:#ffffff;"/>
  </g>
  <g id="axes_1">
   <g id="patch_2">
    <path d="M 184.32 672.1992 
L 1327.104 672.1992 
L 1327.104 90.6336 
L 184.32 90.6336 
z
" style="fill:#ffffff;"/>
   </g>
   <g id="matplotlib.axis_1">
    <g id="xtick_1">
     <g id="line2d_1">
      <path clip-path="url(#pedaa6884ad)" d="M 184.32 672.1992 
L 184.32 90.6336 
" style="fill:none;stroke:#b0b0b0;stroke-linecap:square;stroke-width:0.8;"/>
     </g>
     <g id="line2d_2">
      <defs>
       <path d="M 0 0 
L 0 3.5 
" id="m999f69facf" style="stroke:#000000;stroke-width:0.8;"/>
      </defs>
      <g>
       <use style="stroke:#000000;stroke-width:0.8;" x="184.32" xlink:href="#m999f69facf" y="672.1992"/>
      </g>
     </g>
     <g id="text_1">
      <!-- 0 -->
      <g transform="translate(181.13875 686.797637)scale(0.1 -0.1)">
       <defs>
        <path d="M 2034 4250 
Q 1547 4250 1301 3770 
Q 1056 3291 1056 2328 
Q 1056 1369 1301 889 
Q 1547 409 2034 409 
Q 2525 409 2770 889 
Q 3016 1369 3016 2328 
Q 3016 3291 2770 3770 
Q 2525 4250 2034 4250 
z
M 2034 4750 
Q 2819 4750 3233 4129 
Q 3647 3509 3647 2328 
Q 3647 1150 3233 529 
Q 2819 -91 2034 -91 
Q 1250 -91 836 529 
Q 422 1150 422 2328 
Q 422 3509 836 4129 
Q 1250 4750 2034 4750 
z
" id="DejaVuSans-30" transform="scale(0.015625)"/>
       </defs>
       <use xlink:href="#DejaVuSans-30"/>
      </g>
     </g>
    </g>
    <g id="xtick_2">
     <g id="line2d_3">
      <path clip-path="url(#pedaa6884ad)" d="M 226.645333 672.1992 
L 226.645333 90.6336 
" style="fill:none;stroke:#b0b0b0;stroke-linecap:square;stroke-width:0.8;"/>
     </g>
     <g id="line2d_4">
      <g>
       <use style="stroke:#000000;stroke-width:0.8;" x="226.645333" xlink:href="#m999f69facf" y="672.1992"/>
      </g>
     </g>
     <g id="text_2">
      <!-- 1 -->
      <g transform="translate(223.464083 686.797637)scale(0.1 -0.1)">
       <defs>
        <path d="M 794 531 
L 1825 531 
L 1825 4091 
L 703 3866 
L 703 4441 
L 1819 4666 
L 2450 4666 
L 2450 531 
L 3481 531 
L 3481 0 
L 794 0 
L 794 531 
z
" id="DejaVuSans-31" transform="scale(0.015625)"/>
       </defs>
       <use xlink:href="#DejaVuSans-31"/>
      </g>
     </g>
    </g>
    <g id="xtick_3">
     <g id="line2d_5">
      <path clip-path="url(#pedaa6884ad)" d="M 268.970667 672.1992 
L 268.970667 90.6336 
" style="fill:none;stroke:#b0b0b0;stroke-linecap:square;stroke-width:0.8;"/>
     </g>
     <g id="line2d_6">
      <g>
       <use style="stroke:#000000;stroke-width:0.8;" x="268.970667" xlink:href="#m999f69facf" y="672.1992"/>
      </g>
     </g>
     <g id="text_3">
      <!-- 2 -->
      <g transform="translate(265.789417 686.797637)scale(0.1 -0.1)">
       <defs>
        <path d="M 1228 531 
L 3431 531 
L 3431 0 
L 469 0 
L 469 531 
Q 828 903 1448 1529 
Q 2069 2156 2228 2338 
Q 2531 2678 2651 2914 
Q 2772 3150 2772 3378 
Q 2772 3750 2511 3984 
Q 2250 4219 1831 4219 
Q 1534 4219 1204 4116 
Q 875 4013 500 3803 
L 500 4441 
Q 881 4594 1212 4672 
Q 1544 4750 1819 4750 
Q 2544 4750 2975 4387 
Q 3406 4025 3406 3419 
Q 3406 3131 3298 2873 
Q 3191 2616 2906 2266 
Q 2828 2175 2409 1742 
Q 1991 1309 1228 531 
z
" id="DejaVuSans-32" transform="scale(0.015625)"/>
       </defs>
       <use xlink:href="#DejaVuSans-32"/>
      </g>
     </g>
    </g>
    <g id="xtick_4">
     <g id="line2d_7">
      <path clip-path="url(#pedaa6884ad)" d="M 311.296 672.1992 
L 311.296 90.6336 
" style="fill:none;stroke:#b0b0b0;stroke-linecap:square;stroke-width:0.8;"/>
     </g>
     <g id="line2d_8">
      <g>
       <use style="stroke:#000000;stroke-width:0.8;" x="311.296" xlink:href="#m999f69facf" y="672.1992"/>
      </g>
     </g>
     <g id="text_4">
      <!-- 3 -->
      <g transform="translate(308.11475 686.797637)scale(0.1 -0.1)">
       <defs>
        <path d="M 2597 2516 
Q 3050 2419 3304 2112 
Q 3559 1806 3559 1356 
Q 3559 666 3084 287 
Q 2609 -91 1734 -91 
Q 1441 -91 1130 -33 
Q 819 25 488 141 
L 488 750 
Q 750 597 1062 519 
Q 1375 441 1716 441 
Q 2309 441 2620 675 
Q 2931 909 2931 1356 
Q 2931 1769 2642 2001 
Q 2353 2234 1838 2234 
L 1294 2234 
L 1294 2753 
L 1863 2753 
Q 2328 2753 2575 2939 
Q 2822 3125 2822 3475 
Q 2822 3834 2567 4026 
Q 2313 4219 1838 4219 
Q 1578 4219 1281 4162 
Q 984 4106 628 3988 
L 628 4550 
Q 988 4650 1302 4700 
Q 1616 4750 1894 4750 
Q 2613 4750 3031 4423 
Q 3450 4097 3450 3541 
Q 3450 3153 3228 2886 
Q 3006 2619 2597 2516 
z
" id="DejaVuSans-33" transform="scale(0.015625)"/>
       </defs>
       <use xlink:href="#DejaVuSans-33"/>
      </g>
     </g>
    </g>
    <g id="xtick_5">
     <g id="line2d_9">
      <path clip-path="url(#pedaa6884ad)" d="M 353.621333 672.1992 
L 353.621333 90.6336 
" style="fill:none;stroke:#b0b0b0;stroke-linecap:square;stroke-width:0.8;"/>
     </g>
     <g id="line2d_10">
      <g>
       <use style="stroke:#000000;stroke-width:0.8;" x="353.621333" xlink:href="#m999f69facf" y="672.1992"/>
      </g>
     </g>
     <g id="text_5">
      <!-- 4 -->
      <g transform="translate(350.440083 686.797637)scale(0.1 -0.1)">
       <defs>
        <path d="M 2419 4116 
L 825 1625 
L 2419 1625 
L 2419 4116 
z
M 2253 4666 
L 3047 4666 
L 3047 1625 
L 3713 1625 
L 3713 1100 
L 3047 1100 
L 3047 0 
L 2419 0 
L 2419 1100 
L 313 1100 
L 313 1709 
L 2253 4666 
z
" id="DejaVuSans-34" transform="scale(0.015625)"/>
       </defs>
       <use xlink:href="#DejaVuSans-34"/>
      </g>
     </g>
    </g>
    <g id="xtick_6">
     <g id="line2d_11">
      <path clip-path="url(#pedaa6884ad)" d="M 395.946667 672.1992 
L 395.946667 90.6336 
" style="fill:none;stroke:#b0b0b0;stroke-linecap:square;stroke-width:0.8;"/>
     </g>
     <g id="line2d_12">
      <g>
       <use style="stroke:#000000;stroke-width:0.8;" x="395.946667" xlink:href="#m999f69facf" y="672.1992"/>
      </g>
     </g>
     <g id="text_6">
      <!-- 5 -->
      <g transform="translate(392.765417 686.797637)scale(0.1 -0.1)">
       <defs>
        <path d="M 691 4666 
L 3169 4666 
L 3169 4134 
L 1269 4134 
L 1269 2991 
Q 1406 3038 1543 3061 
Q 1681 3084 1819 3084 
Q 2600 3084 3056 2656 
Q 3513 2228 3513 1497 
Q 3513 744 3044 326 
Q 2575 -91 1722 -91 
Q 1428 -91 1123 -41 
Q 819 9 494 109 
L 494 744 
Q 775 591 1075 516 
Q 1375 441 1709 441 
Q 2250 441 2565 725 
Q 2881 1009 2881 1497 
Q 2881 1984 2565 2268 
Q 2250 2553 1709 2553 
Q 1456 2553 1204 2497 
Q 953 2441 691 2322 
L 691 4666 
z
" id="DejaVuSans-35" transform="scale(0.015625)"/>
       </defs>
       <use xlink:href="#DejaVuSans-35"/>
      </g>
     </g>
    </g>
    <g id="xtick_7">
     <g id="line2d_13">
      <path clip-path="url(#pedaa6884ad)" d="M 438.272 672.1992 
L 438.272 90.6336 
" style="fill:none;stroke:#b0b0b0;stroke-linecap:square;stroke-width:0.8;"/>
     </g>
     <g id="line2d_14">
      <g>
       <use style="stroke:#000000;stroke-width:0.8;" x="438.272" xlink:href="#m999f69facf" y="672.1992"/>
      </g>
     </g>
     <g id="text_7">
      <!-- 6 -->
      <g transform="translate(435.09075 686.797637)scale(0.1 -0.1)">
       <defs>
        <path d="M 2113 2584 
Q 1688 2584 1439 2293 
Q 1191 2003 1191 1497 
Q 1191 994 1439 701 
Q 1688 409 2113 409 
Q 2538 409 2786 701 
Q 3034 994 3034 1497 
Q 3034 2003 2786 2293 
Q 2538 2584 2113 2584 
z
M 3366 4563 
L 3366 3988 
Q 3128 4100 2886 4159 
Q 2644 4219 2406 4219 
Q 1781 4219 1451 3797 
Q 1122 3375 1075 2522 
Q 1259 2794 1537 2939 
Q 1816 3084 2150 3084 
Q 2853 3084 3261 2657 
Q 3669 2231 3669 1497 
Q 3669 778 3244 343 
Q 2819 -91 2113 -91 
Q 1303 -91 875 529 
Q 447 1150 447 2328 
Q 447 3434 972 4092 
Q 1497 4750 2381 4750 
Q 2619 4750 2861 4703 
Q 3103 4656 3366 4563 
z
" id="DejaVuSans-36" transform="scale(0.015625)"/>
       </defs>
       <use xlink:href="#DejaVuSans-36"/>
      </g>
     </g>
    </g>
    <g id="xtick_8">
     <g id="line2d_15">
      <path clip-path="url(#pedaa6884ad)" d="M 480.597333 672.1992 
L 480.597333 90.6336 
" style="fill:none;stroke:#b0b0b0;stroke-linecap:square;stroke-width:0.8;"/>
     </g>
     <g id="line2d_16">
      <g>
       <use style="stroke:#000000;stroke-width:0.8;" x="480.597333" xlink:href="#m999f69facf" y="672.1992"/>
      </g>
     </g>
     <g id="text_8">
      <!-- 7 -->
      <g transform="translate(477.416083 686.797637)scale(0.1 -0.1)">
       <defs>
        <path d="M 525 4666 
L 3525 4666 
L 3525 4397 
L 1831 0 
L 1172 0 
L 2766 4134 
L 525 4134 
L 525 4666 
z
" id="DejaVuSans-37" transform="scale(0.015625)"/>
       </defs>
       <use xlink:href="#DejaVuSans-37"/>
      </g>
     </g>
    </g>
    <g id="xtick_9">
     <g id="line2d_17">
      <path clip-path="url(#pedaa6884ad)" d="M 522.922667 672.1992 
L 522.922667 90.6336 
" style="fill:none;stroke:#b0b0b0;stroke-linecap:square;stroke-width:0.8;"/>
     </g>
     <g id="line2d_18">
      <g>
       <use style="stroke:#000000;stroke-width:0.8;" x="522.922667" xlink:href="#m999f69facf" y="672.1992"/>
      </g>
     </g>
     <g id="text_9">
      <!-- 8 -->
      <g transform="translate(519.741417 686.797637)scale(0.1 -0.1)">
       <defs>
        <path d="M 2034 2216 
Q 1584 2216 1326 1975 
Q 1069 1734 1069 1313 
Q 1069 891 1326 650 
Q 1584 409 2034 409 
Q 2484 409 2743 651 
Q 3003 894 3003 1313 
Q 3003 1734 2745 1975 
Q 2488 2216 2034 2216 
z
M 1403 2484 
Q 997 2584 770 2862 
Q 544 3141 544 3541 
Q 544 4100 942 4425 
Q 1341 4750 2034 4750 
Q 2731 4750 3128 4425 
Q 3525 4100 3525 3541 
Q 3525 3141 3298 2862 
Q 3072 2584 2669 2484 
Q 3125 2378 3379 2068 
Q 3634 1759 3634 1313 
Q 3634 634 3220 271 
Q 2806 -91 2034 -91 
Q 1263 -91 848 271 
Q 434 634 434 1313 
Q 434 1759 690 2068 
Q 947 2378 1403 2484 
z
M 1172 3481 
Q 1172 3119 1398 2916 
Q 1625 2713 2034 2713 
Q 2441 2713 2670 2916 
Q 2900 3119 2900 3481 
Q 2900 3844 2670 4047 
Q 2441 4250 2034 4250 
Q 1625 4250 1398 4047 
Q 1172 3844 1172 3481 
z
" id="DejaVuSans-38" transform="scale(0.015625)"/>
       </defs>
       <use xlink:href="#DejaVuSans-38"/>
      </g>
     </g>
    </g>
    <g id="xtick_10">
     <g id="line2d_19">
      <path clip-path="url(#pedaa6884ad)" d="M 565.248 672.1992 
L 565.248 90.6336 
" style="fill:none;stroke:#b0b0b0;stroke-linecap:square;stroke-width:0.8;"/>
     </g>
     <g id="line2d_20">
      <g>
       <use style="stroke:#000000;stroke-width:0.8;" x="565.248" xlink:href="#m999f69facf" y="672.1992"/>
      </g>
     </g>
     <g id="text_10">
      <!-- 9 -->
      <g transform="translate(562.06675 686.797637)scale(0.1 -0.1)">
       <defs>
        <path d="M 703 97 
L 703 672 
Q 941 559 1184 500 
Q 1428 441 1663 441 
Q 2288 441 2617 861 
Q 2947 1281 2994 2138 
Q 2813 1869 2534 1725 
Q 2256 1581 1919 1581 
Q 1219 1581 811 2004 
Q 403 2428 403 3163 
Q 403 3881 828 4315 
Q 1253 4750 1959 4750 
Q 2769 4750 3195 4129 
Q 3622 3509 3622 2328 
Q 3622 1225 3098 567 
Q 2575 -91 1691 -91 
Q 1453 -91 1209 -44 
Q 966 3 703 97 
z
M 1959 2075 
Q 2384 2075 2632 2365 
Q 2881 2656 2881 3163 
Q 2881 3666 2632 3958 
Q 2384 4250 1959 4250 
Q 1534 4250 1286 3958 
Q 1038 3666 1038 3163 
Q 1038 2656 1286 2365 
Q 1534 2075 1959 2075 
z
" id="DejaVuSans-39" transform="scale(0.015625)"/>
       </defs>
       <use xlink:href="#DejaVuSans-39"/>
      </g>
     </g>
    </g>
    <g id="xtick_11">
     <g id="line2d_21">
      <path clip-path="url(#pedaa6884ad)" d="M 607.573333 672.1992 
L 607.573333 90.6336 
" style="fill:none;stroke:#b0b0b0;stroke-linecap:square;stroke-width:0.8;"/>
     </g>
     <g id="line2d_22">
      <g>
       <use style="stroke:#000000;stroke-width:0.8;" x="607.573333" xlink:href="#m999f69facf" y="672.1992"/>
      </g>
     </g>
     <g id="text_11">
      <!-- 10 -->
      <g transform="translate(601.210833 686.797637)scale(0.1 -0.1)">
       <use xlink:href="#DejaVuSans-31"/>
       <use x="63.623047" xlink:href="#DejaVuSans-30"/>
      </g>
     </g>
    </g>
    <g id="xtick_12">
     <g id="line2d_23">
      <path clip-path="url(#pedaa6884ad)" d="M 649.898667 672.1992 
L 649.898667 90.6336 
" style="fill:none;stroke:#b0b0b0;stroke-linecap:square;stroke-width:0.8;"/>
     </g>
     <g id="line2d_24">
      <g>
       <use style="stroke:#000000;stroke-width:0.8;" x="649.898667" xlink:href="#m999f69facf" y="672.1992"/>
      </g>
     </g>
     <g id="text_12">
      <!-- 11 -->
      <g transform="translate(643.536167 686.797637)scale(0.1 -0.1)">
       <use xlink:href="#DejaVuSans-31"/>
       <use x="63.623047" xlink:href="#DejaVuSans-31"/>
      </g>
     </g>
    </g>
    <g id="xtick_13">
     <g id="line2d_25">
      <path clip-path="url(#pedaa6884ad)" d="M 692.224 672.1992 
L 692.224 90.6336 
" style="fill:none;stroke:#b0b0b0;stroke-linecap:square;stroke-width:0.8;"/>
     </g>
     <g id="line2d_26">
      <g>
       <use style="stroke:#000000;stroke-width:0.8;" x="692.224" xlink:href="#m999f69facf" y="672.1992"/>
      </g>
     </g>
     <g id="text_13">
      <!-- 12 -->
      <g transform="translate(685.8615 686.797637)scale(0.1 -0.1)">
       <use xlink:href="#DejaVuSans-31"/>
       <use x="63.623047" xlink:href="#DejaVuSans-32"/>
      </g>
     </g>
    </g>
    <g id="xtick_14">
     <g id="line2d_27">
      <path clip-path="url(#pedaa6884ad)" d="M 734.549333 672.1992 
L 734.549333 90.6336 
" style="fill:none;stroke:#b0b0b0;stroke-linecap:square;stroke-width:0.8;"/>
     </g>
     <g id="line2d_28">
      <g>
       <use style="stroke:#000000;stroke-width:0.8;" x="734.549333" xlink:href="#m999f69facf" y="672.1992"/>
      </g>
     </g>
     <g id="text_14">
      <!-- 13 -->
      <g transform="translate(728.186833 686.797637)scale(0.1 -0.1)">
       <use xlink:href="#DejaVuSans-31"/>
       <use x="63.623047" xlink:href="#DejaVuSans-33"/>
      </g>
     </g>
    </g>
    <g id="xtick_15">
     <g id="line2d_29">
      <path clip-path="url(#pedaa6884ad)" d="M 776.874667 672.1992 
L 776.874667 90.6336 
" style="fill:none;stroke:#b0b0b0;stroke-linecap:square;stroke-width:0.8;"/>
     </g>
     <g id="line2d_30">
      <g>
       <use style="stroke:#000000;stroke-width:0.8;" x="776.874667" xlink:href="#m999f69facf" y="672.1992"/>
      </g>
     </g>
     <g id="text_15">
      <!-- 14 -->
      <g transform="translate(770.512167 686.797637)scale(0.1 -0.1)">
       <use xlink:href="#DejaVuSans-31"/>
       <use x="63.623047" xlink:href="#DejaVuSans-34"/>
      </g>
     </g>
    </g>
    <g id="xtick_16">
     <g id="line2d_31">
      <path clip-path="url(#pedaa6884ad)" d="M 819.2 672.1992 
L 819.2 90.6336 
" style="fill:none;stroke:#b0b0b0;stroke-linecap:square;stroke-width:0.8;"/>
     </g>
     <g id="line2d_32">
      <g>
       <use style="stroke:#000000;stroke-width:0.8;" x="819.2" xlink:href="#m999f69facf" y="672.1992"/>
      </g>
     </g>
     <g id="text_16">
      <!-- 15 -->
      <g transform="translate(812.8375 686.797637)scale(0.1 -0.1)">
       <use xlink:href="#DejaVuSans-31"/>
       <use x="63.623047" xlink:href="#DejaVuSans-35"/>
      </g>
     </g>
    </g>
    <g id="xtick_17">
     <g id="line2d_33">
      <path clip-path="url(#pedaa6884ad)" d="M 861.525333 672.1992 
L 861.525333 90.6336 
" style="fill:none;stroke:#b0b0b0;stroke-linecap:square;stroke-width:0.8;"/>
     </g>
     <g id="line2d_34">
      <g>
       <use style="stroke:#000000;stroke-width:0.8;" x="861.525333" xlink:href="#m999f69facf" y="672.1992"/>
      </g>
     </g>
     <g id="text_17">
      <!-- 16 -->
      <g transform="translate(855.162833 686.797637)scale(0.1 -0.1)">
       <use xlink:href="#DejaVuSans-31"/>
       <use x="63.623047" xlink:href="#DejaVuSans-36"/>
      </g>
     </g>
    </g>
    <g id="xtick_18">
     <g id="line2d_35">
      <path clip-path="url(#pedaa6884ad)" d="M 903.850667 672.1992 
L 903.850667 90.6336 
" style="fill:none;stroke:#b0b0b0;stroke-linecap:square;stroke-width:0.8;"/>
     </g>
     <g id="line2d_36">
      <g>
       <use style="stroke:#000000;stroke-width:0.8;" x="903.850667" xlink:href="#m999f69facf" y="672.1992"/>
      </g>
     </g>
     <g id="text_18">
      <!-- 17 -->
      <g transform="translate(897.488167 686.797637)scale(0.1 -0.1)">
       <use xlink:href="#DejaVuSans-31"/>
       <use x="63.623047" xlink:href="#DejaVuSans-37"/>
      </g>
     </g>
    </g>
    <g id="xtick_19">
     <g id="line2d_37">
      <path clip-path="url(#pedaa6884ad)" d="M 946.176 672.1992 
L 946.176 90.6336 
" style="fill:none;stroke:#b0b0b0;stroke-linecap:square;stroke-width:0.8;"/>
     </g>
     <g id="line2d_38">
      <g>
       <use style="stroke:#000000;stroke-width:0.8;" x="946.176" xlink:href="#m999f69facf" y="672.1992"/>
      </g>
     </g>
     <g id="text_19">
      <!-- 18 -->
      <g transform="translate(939.8135 686.797637)scale(0.1 -0.1)">
       <use xlink:href="#DejaVuSans-31"/>
       <use x="63.623047" xlink:href="#DejaVuSans-38"/>
      </g>
     </g>
    </g>
    <g id="xtick_20">
     <g id="line2d_39">
      <path clip-path="url(#pedaa6884ad)" d="M 988.501333 672.1992 
L 988.501333 90.6336 
" style="fill:none;stroke:#b0b0b0;stroke-linecap:square;stroke-width:0.8;"/>
     </g>
     <g id="line2d_40">
      <g>
       <use style="stroke:#000000;stroke-width:0.8;" x="988.501333" xlink:href="#m999f69facf" y="672.1992"/>
      </g>
     </g>
     <g id="text_20">
      <!-- 19 -->
      <g transform="translate(982.138833 686.797637)scale(0.1 -0.1)">
       <use xlink:href="#DejaVuSans-31"/>
       <use x="63.623047" xlink:href="#DejaVuSans-39"/>
      </g>
     </g>
    </g>
    <g id="xtick_21">
     <g id="line2d_41">
      <path clip-path="url(#pedaa6884ad)" d="M 1030.826667 672.1992 
L 1030.826667 90.6336 
" style="fill:none;stroke:#b0b0b0;stroke-linecap:square;stroke-width:0.8;"/>
     </g>
     <g id="line2d_42">
      <g>
       <use style="stroke:#000000;stroke-width:0.8;" x="1030.826667" xlink:href="#m999f69facf" y="672.1992"/>
      </g>
     </g>
     <g id="text_21">
      <!-- 20 -->
      <g transform="translate(1024.464167 686.797637)scale(0.1 -0.1)">
       <use xlink:href="#DejaVuSans-32"/>
       <use x="63.623047" xlink:href="#DejaVuSans-30"/>
      </g>
     </g>
    </g>
    <g id="xtick_22">
     <g id="line2d_43">
      <path clip-path="url(#pedaa6884ad)" d="M 1073.152 672.1992 
L 1073.152 90.6336 
" style="fill:none;stroke:#b0b0b0;stroke-linecap:square;stroke-width:0.8;"/>
     </g>
     <g id="line2d_44">
      <g>
       <use style="stroke:#000000;stroke-width:0.8;" x="1073.152" xlink:href="#m999f69facf" y="672.1992"/>
      </g>
     </g>
     <g id="text_22">
      <!-- 21 -->
      <g transform="translate(1066.7895 686.797637)scale(0.1 -0.1)">
       <use xlink:href="#DejaVuSans-32"/>
       <use x="63.623047" xlink:href="#DejaVuSans-31"/>
      </g>
     </g>
    </g>
    <g id="xtick_23">
     <g id="line2d_45">
      <path clip-path="url(#pedaa6884ad)" d="M 1115.477333 672.1992 
L 1115.477333 90.6336 
" style="fill:none;stroke:#b0b0b0;stroke-linecap:square;stroke-width:0.8;"/>
     </g>
     <g id="line2d_46">
      <g>
       <use style="stroke:#000000;stroke-width:0.8;" x="1115.477333" xlink:href="#m999f69facf" y="672.1992"/>
      </g>
     </g>
     <g id="text_23">
      <!-- 22 -->
      <g transform="translate(1109.114833 686.797637)scale(0.1 -0.1)">
       <use xlink:href="#DejaVuSans-32"/>
       <use x="63.623047" xlink:href="#DejaVuSans-32"/>
      </g>
     </g>
    </g>
    <g id="xtick_24">
     <g id="line2d_47">
      <path clip-path="url(#pedaa6884ad)" d="M 1157.802667 672.1992 
L 1157.802667 90.6336 
" style="fill:none;stroke:#b0b0b0;stroke-linecap:square;stroke-width:0.8;"/>
     </g>
     <g id="line2d_48">
      <g>
       <use style="stroke:#000000;stroke-width:0.8;" x="1157.802667" xlink:href="#m999f69facf" y="672.1992"/>
      </g>
     </g>
     <g id="text_24">
      <!-- 23 -->
      <g transform="translate(1151.440167 686.797637)scale(0.1 -0.1)">
       <use xlink:href="#DejaVuSans-32"/>
       <use x="63.623047" xlink:href="#DejaVuSans-33"/>
      </g>
     </g>
    </g>
    <g id="xtick_25">
     <g id="line2d_49">
      <path clip-path="url(#pedaa6884ad)" d="M 1200.128 672.1992 
L 1200.128 90.6336 
" style="fill:none;stroke:#b0b0b0;stroke-linecap:square;stroke-width:0.8;"/>
     </g>
     <g id="line2d_50">
      <g>
       <use style="stroke:#000000;stroke-width:0.8;" x="1200.128" xlink:href="#m999f69facf" y="672.1992"/>
      </g>
     </g>
     <g id="text_25">
      <!-- 24 -->
      <g transform="translate(1193.7655 686.797637)scale(0.1 -0.1)">
       <use xlink:href="#DejaVuSans-32"/>
       <use x="63.623047" xlink:href="#DejaVuSans-34"/>
      </g>
     </g>
    </g>
    <g id="xtick_26">
     <g id="line2d_51">
      <path clip-path="url(#pedaa6884ad)" d="M 1242.453333 672.1992 
L 1242.453333 90.6336 
" style="fill:none;stroke:#b0b0b0;stroke-linecap:square;stroke-width:0.8;"/>
     </g>
     <g id="line2d_52">
      <g>
       <use style="stroke:#000000;stroke-width:0.8;" x="1242.453333" xlink:href="#m999f69facf" y="672.1992"/>
      </g>
     </g>
     <g id="text_26">
      <!-- 25 -->
      <g transform="translate(1236.090833 686.797637)scale(0.1 -0.1)">
       <use xlink:href="#DejaVuSans-32"/>
       <use x="63.623047" xlink:href="#DejaVuSans-35"/>
      </g>
     </g>
    </g>
    <g id="xtick_27">
     <g id="line2d_53">
      <path clip-path="url(#pedaa6884ad)" d="M 1284.778667 672.1992 
L 1284.778667 90.6336 
" style="fill:none;stroke:#b0b0b0;stroke-linecap:square;stroke-width:0.8;"/>
     </g>
     <g id="line2d_54">
      <g>
       <use style="stroke:#000000;stroke-width:0.8;" x="1284.778667" xlink:href="#m999f69facf" y="672.1992"/>
      </g>
     </g>
     <g id="text_27">
      <!-- 26 -->
      <g transform="translate(1278.416167 686.797637)scale(0.1 -0.1)">
       <use xlink:href="#DejaVuSans-32"/>
       <use x="63.623047" xlink:href="#DejaVuSans-36"/>
      </g>
     </g>
    </g>
    <g id="text_28">
     <!-- laikas, minutės -->
     <g transform="translate(717.976844 700.475762)scale(0.1 -0.1)">
      <defs>
       <path d="M 603 4863 
L 1178 4863 
L 1178 0 
L 603 0 
L 603 4863 
z
" id="DejaVuSans-6c" transform="scale(0.015625)"/>
       <path d="M 2194 1759 
Q 1497 1759 1228 1600 
Q 959 1441 959 1056 
Q 959 750 1161 570 
Q 1363 391 1709 391 
Q 2188 391 2477 730 
Q 2766 1069 2766 1631 
L 2766 1759 
L 2194 1759 
z
M 3341 1997 
L 3341 0 
L 2766 0 
L 2766 531 
Q 2569 213 2275 61 
Q 1981 -91 1556 -91 
Q 1019 -91 701 211 
Q 384 513 384 1019 
Q 384 1609 779 1909 
Q 1175 2209 1959 2209 
L 2766 2209 
L 2766 2266 
Q 2766 2663 2505 2880 
Q 2244 3097 1772 3097 
Q 1472 3097 1187 3025 
Q 903 2953 641 2809 
L 641 3341 
Q 956 3463 1253 3523 
Q 1550 3584 1831 3584 
Q 2591 3584 2966 3190 
Q 3341 2797 3341 1997 
z
" id="DejaVuSans-61" transform="scale(0.015625)"/>
       <path d="M 603 3500 
L 1178 3500 
L 1178 0 
L 603 0 
L 603 3500 
z
M 603 4863 
L 1178 4863 
L 1178 4134 
L 603 4134 
L 603 4863 
z
" id="DejaVuSans-69" transform="scale(0.015625)"/>
       <path d="M 581 4863 
L 1159 4863 
L 1159 1991 
L 2875 3500 
L 3609 3500 
L 1753 1863 
L 3688 0 
L 2938 0 
L 1159 1709 
L 1159 0 
L 581 0 
L 581 4863 
z
" id="DejaVuSans-6b" transform="scale(0.015625)"/>
       <path d="M 2834 3397 
L 2834 2853 
Q 2591 2978 2328 3040 
Q 2066 3103 1784 3103 
Q 1356 3103 1142 2972 
Q 928 2841 928 2578 
Q 928 2378 1081 2264 
Q 1234 2150 1697 2047 
L 1894 2003 
Q 2506 1872 2764 1633 
Q 3022 1394 3022 966 
Q 3022 478 2636 193 
Q 2250 -91 1575 -91 
Q 1294 -91 989 -36 
Q 684 19 347 128 
L 347 722 
Q 666 556 975 473 
Q 1284 391 1588 391 
Q 1994 391 2212 530 
Q 2431 669 2431 922 
Q 2431 1156 2273 1281 
Q 2116 1406 1581 1522 
L 1381 1569 
Q 847 1681 609 1914 
Q 372 2147 372 2553 
Q 372 3047 722 3315 
Q 1072 3584 1716 3584 
Q 2034 3584 2315 3537 
Q 2597 3491 2834 3397 
z
" id="DejaVuSans-73" transform="scale(0.015625)"/>
       <path d="M 750 794 
L 1409 794 
L 1409 256 
L 897 -744 
L 494 -744 
L 750 256 
L 750 794 
z
" id="DejaVuSans-2c" transform="scale(0.015625)"/>
       <path id="DejaVuSans-20" transform="scale(0.015625)"/>
       <path d="M 3328 2828 
Q 3544 3216 3844 3400 
Q 4144 3584 4550 3584 
Q 5097 3584 5394 3201 
Q 5691 2819 5691 2113 
L 5691 0 
L 5113 0 
L 5113 2094 
Q 5113 2597 4934 2840 
Q 4756 3084 4391 3084 
Q 3944 3084 3684 2787 
Q 3425 2491 3425 1978 
L 3425 0 
L 2847 0 
L 2847 2094 
Q 2847 2600 2669 2842 
Q 2491 3084 2119 3084 
Q 1678 3084 1418 2786 
Q 1159 2488 1159 1978 
L 1159 0 
L 581 0 
L 581 3500 
L 1159 3500 
L 1159 2956 
Q 1356 3278 1631 3431 
Q 1906 3584 2284 3584 
Q 2666 3584 2933 3390 
Q 3200 3197 3328 2828 
z
" id="DejaVuSans-6d" transform="scale(0.015625)"/>
       <path d="M 3513 2113 
L 3513 0 
L 2938 0 
L 2938 2094 
Q 2938 2591 2744 2837 
Q 2550 3084 2163 3084 
Q 1697 3084 1428 2787 
Q 1159 2491 1159 1978 
L 1159 0 
L 581 0 
L 581 3500 
L 1159 3500 
L 1159 2956 
Q 1366 3272 1645 3428 
Q 1925 3584 2291 3584 
Q 2894 3584 3203 3211 
Q 3513 2838 3513 2113 
z
" id="DejaVuSans-6e" transform="scale(0.015625)"/>
       <path d="M 544 1381 
L 544 3500 
L 1119 3500 
L 1119 1403 
Q 1119 906 1312 657 
Q 1506 409 1894 409 
Q 2359 409 2629 706 
Q 2900 1003 2900 1516 
L 2900 3500 
L 3475 3500 
L 3475 0 
L 2900 0 
L 2900 538 
Q 2691 219 2414 64 
Q 2138 -91 1772 -91 
Q 1169 -91 856 284 
Q 544 659 544 1381 
z
M 1991 3584 
L 1991 3584 
z
" id="DejaVuSans-75" transform="scale(0.015625)"/>
       <path d="M 1172 4494 
L 1172 3500 
L 2356 3500 
L 2356 3053 
L 1172 3053 
L 1172 1153 
Q 1172 725 1289 603 
Q 1406 481 1766 481 
L 2356 481 
L 2356 0 
L 1766 0 
Q 1100 0 847 248 
Q 594 497 594 1153 
L 594 3053 
L 172 3053 
L 172 3500 
L 594 3500 
L 594 4494 
L 1172 4494 
z
" id="DejaVuSans-74" transform="scale(0.015625)"/>
       <path d="M 1778 4863 
L 2353 4863 
L 2353 4134 
L 1778 4134 
L 1778 4863 
z
M 2072 3584 
L 2072 3584 
z
M 3597 1894 
L 3597 1613 
L 953 1613 
Q 991 1019 1311 708 
Q 1631 397 2203 397 
Q 2534 397 2845 478 
Q 3156 559 3463 722 
L 3463 178 
Q 3153 47 2828 -22 
Q 2503 -91 2169 -91 
Q 1331 -91 842 396 
Q 353 884 353 1716 
Q 353 2575 817 3079 
Q 1281 3584 2069 3584 
Q 2775 3584 3186 3129 
Q 3597 2675 3597 1894 
z
M 3022 2063 
Q 3016 2534 2758 2815 
Q 2500 3097 2075 3097 
Q 1594 3097 1305 2825 
Q 1016 2553 972 2059 
L 3022 2063 
z
" id="DejaVuSans-117" transform="scale(0.015625)"/>
      </defs>
      <use xlink:href="#DejaVuSans-6c"/>
      <use x="27.783203" xlink:href="#DejaVuSans-61"/>
      <use x="89.0625" xlink:href="#DejaVuSans-69"/>
      <use x="116.845703" xlink:href="#DejaVuSans-6b"/>
      <use x="173.005859" xlink:href="#DejaVuSans-61"/>
      <use x="234.285156" xlink:href="#DejaVuSans-73"/>
      <use x="286.384766" xlink:href="#DejaVuSans-2c"/>
      <use x="318.171875" xlink:href="#DejaVuSans-20"/>
      <use x="349.958984" xlink:href="#DejaVuSans-6d"/>
      <use x="447.371094" xlink:href="#DejaVuSans-69"/>
      <use x="475.154297" xlink:href="#DejaVuSans-6e"/>
      <use x="538.533203" xlink:href="#DejaVuSans-75"/>
      <use x="601.912109" xlink:href="#DejaVuSans-74"/>
      <use x="641.121094" xlink:href="#DejaVuSans-117"/>
      <use x="702.644531" xlink:href="#DejaVuSans-73"/>
     </g>
    </g>
   </g>
   <g id="matplotlib.axis_2">
    <g id="ytick_1">
     <g id="line2d_55">
      <path clip-path="url(#pedaa6884ad)" d="M 184.32 672.1992 
L 1327.104 672.1992 
" style="fill:none;stroke:#b0b0b0;stroke-linecap:square;stroke-width:0.8;"/>
     </g>
     <g id="line2d_56">
      <defs>
       <path d="M 0 0 
L -3.5 0 
" id="m237d2cf62a" style="stroke:#000000;stroke-width:0.8;"/>
      </defs>
      <g>
       <use style="stroke:#000000;stroke-width:0.8;" x="184.32" xlink:href="#m237d2cf62a" y="672.1992"/>
      </g>
     </g>
     <g id="text_29">
      <!-- 0 -->
      <g transform="translate(170.9575 675.998419)scale(0.1 -0.1)">
       <use xlink:href="#DejaVuSans-30"/>
      </g>
     </g>
    </g>
    <g id="ytick_2">
     <g id="line2d_57">
      <path clip-path="url(#pedaa6884ad)" d="M 184.32 648.936576 
L 1327.104 648.936576 
" style="fill:none;stroke:#b0b0b0;stroke-linecap:square;stroke-width:0.8;"/>
     </g>
     <g id="line2d_58">
      <g>
       <use style="stroke:#000000;stroke-width:0.8;" x="184.32" xlink:href="#m237d2cf62a" y="648.936576"/>
      </g>
     </g>
     <g id="text_30">
      <!-- 5 -->
      <g transform="translate(170.9575 652.735795)scale(0.1 -0.1)">
       <use xlink:href="#DejaVuSans-35"/>
      </g>
     </g>
    </g>
    <g id="ytick_3">
     <g id="line2d_59">
      <path clip-path="url(#pedaa6884ad)" d="M 184.32 625.673952 
L 1327.104 625.673952 
" style="fill:none;stroke:#b0b0b0;stroke-linecap:square;stroke-width:0.8;"/>
     </g>
     <g id="line2d_60">
      <g>
       <use style="stroke:#000000;stroke-width:0.8;" x="184.32" xlink:href="#m237d2cf62a" y="625.673952"/>
      </g>
     </g>
     <g id="text_31">
      <!-- 10 -->
      <g transform="translate(164.595 629.473171)scale(0.1 -0.1)">
       <use xlink:href="#DejaVuSans-31"/>
       <use x="63.623047" xlink:href="#DejaVuSans-30"/>
      </g>
     </g>
    </g>
    <g id="ytick_4">
     <g id="line2d_61">
      <path clip-path="url(#pedaa6884ad)" d="M 184.32 602.411328 
L 1327.104 602.411328 
" style="fill:none;stroke:#b0b0b0;stroke-linecap:square;stroke-width:0.8;"/>
     </g>
     <g id="line2d_62">
      <g>
       <use style="stroke:#000000;stroke-width:0.8;" x="184.32" xlink:href="#m237d2cf62a" y="602.411328"/>
      </g>
     </g>
     <g id="text_32">
      <!-- 15 -->
      <g transform="translate(164.595 606.210547)scale(0.1 -0.1)">
       <use xlink:href="#DejaVuSans-31"/>
       <use x="63.623047" xlink:href="#DejaVuSans-35"/>
      </g>
     </g>
    </g>
    <g id="ytick_5">
     <g id="line2d_63">
      <path clip-path="url(#pedaa6884ad)" d="M 184.32 579.148704 
L 1327.104 579.148704 
" style="fill:none;stroke:#b0b0b0;stroke-linecap:square;stroke-width:0.8;"/>
     </g>
     <g id="line2d_64">
      <g>
       <use style="stroke:#000000;stroke-width:0.8;" x="184.32" xlink:href="#m237d2cf62a" y="579.148704"/>
      </g>
     </g>
     <g id="text_33">
      <!-- 20 -->
      <g transform="translate(164.595 582.947923)scale(0.1 -0.1)">
       <use xlink:href="#DejaVuSans-32"/>
       <use x="63.623047" xlink:href="#DejaVuSans-30"/>
      </g>
     </g>
    </g>
    <g id="ytick_6">
     <g id="line2d_65">
      <path clip-path="url(#pedaa6884ad)" d="M 184.32 555.88608 
L 1327.104 555.88608 
" style="fill:none;stroke:#b0b0b0;stroke-linecap:square;stroke-width:0.8;"/>
     </g>
     <g id="line2d_66">
      <g>
       <use style="stroke:#000000;stroke-width:0.8;" x="184.32" xlink:href="#m237d2cf62a" y="555.88608"/>
      </g>
     </g>
     <g id="text_34">
      <!-- 25 -->
      <g transform="translate(164.595 559.685299)scale(0.1 -0.1)">
       <use xlink:href="#DejaVuSans-32"/>
       <use x="63.623047" xlink:href="#DejaVuSans-35"/>
      </g>
     </g>
    </g>
    <g id="ytick_7">
     <g id="line2d_67">
      <path clip-path="url(#pedaa6884ad)" d="M 184.32 532.623456 
L 1327.104 532.623456 
" style="fill:none;stroke:#b0b0b0;stroke-linecap:square;stroke-width:0.8;"/>
     </g>
     <g id="line2d_68">
      <g>
       <use style="stroke:#000000;stroke-width:0.8;" x="184.32" xlink:href="#m237d2cf62a" y="532.623456"/>
      </g>
     </g>
     <g id="text_35">
      <!-- 30 -->
      <g transform="translate(164.595 536.422675)scale(0.1 -0.1)">
       <use xlink:href="#DejaVuSans-33"/>
       <use x="63.623047" xlink:href="#DejaVuSans-30"/>
      </g>
     </g>
    </g>
    <g id="ytick_8">
     <g id="line2d_69">
      <path clip-path="url(#pedaa6884ad)" d="M 184.32 509.360832 
L 1327.104 509.360832 
" style="fill:none;stroke:#b0b0b0;stroke-linecap:square;stroke-width:0.8;"/>
     </g>
     <g id="line2d_70">
      <g>
       <use style="stroke:#000000;stroke-width:0.8;" x="184.32" xlink:href="#m237d2cf62a" y="509.360832"/>
      </g>
     </g>
     <g id="text_36">
      <!-- 35 -->
      <g transform="translate(164.595 513.160051)scale(0.1 -0.1)">
       <use xlink:href="#DejaVuSans-33"/>
       <use x="63.623047" xlink:href="#DejaVuSans-35"/>
      </g>
     </g>
    </g>
    <g id="ytick_9">
     <g id="line2d_71">
      <path clip-path="url(#pedaa6884ad)" d="M 184.32 486.098208 
L 1327.104 486.098208 
" style="fill:none;stroke:#b0b0b0;stroke-linecap:square;stroke-width:0.8;"/>
     </g>
     <g id="line2d_72">
      <g>
       <use style="stroke:#000000;stroke-width:0.8;" x="184.32" xlink:href="#m237d2cf62a" y="486.098208"/>
      </g>
     </g>
     <g id="text_37">
      <!-- 40 -->
      <g transform="translate(164.595 489.897427)scale(0.1 -0.1)">
       <use xlink:href="#DejaVuSans-34"/>
       <use x="63.623047" xlink:href="#DejaVuSans-30"/>
      </g>
     </g>
    </g>
    <g id="ytick_10">
     <g id="line2d_73">
      <path clip-path="url(#pedaa6884ad)" d="M 184.32 462.835584 
L 1327.104 462.835584 
" style="fill:none;stroke:#b0b0b0;stroke-linecap:square;stroke-width:0.8;"/>
     </g>
     <g id="line2d_74">
      <g>
       <use style="stroke:#000000;stroke-width:0.8;" x="184.32" xlink:href="#m237d2cf62a" y="462.835584"/>
      </g>
     </g>
     <g id="text_38">
      <!-- 45 -->
      <g transform="translate(164.595 466.634803)scale(0.1 -0.1)">
       <use xlink:href="#DejaVuSans-34"/>
       <use x="63.623047" xlink:href="#DejaVuSans-35"/>
      </g>
     </g>
    </g>
    <g id="ytick_11">
     <g id="line2d_75">
      <path clip-path="url(#pedaa6884ad)" d="M 184.32 439.57296 
L 1327.104 439.57296 
" style="fill:none;stroke:#b0b0b0;stroke-linecap:square;stroke-width:0.8;"/>
     </g>
     <g id="line2d_76">
      <g>
       <use style="stroke:#000000;stroke-width:0.8;" x="184.32" xlink:href="#m237d2cf62a" y="439.57296"/>
      </g>
     </g>
     <g id="text_39">
      <!-- 50 -->
      <g transform="translate(164.595 443.372179)scale(0.1 -0.1)">
       <use xlink:href="#DejaVuSans-35"/>
       <use x="63.623047" xlink:href="#DejaVuSans-30"/>
      </g>
     </g>
    </g>
    <g id="ytick_12">
     <g id="line2d_77">
      <path clip-path="url(#pedaa6884ad)" d="M 184.32 416.310336 
L 1327.104 416.310336 
" style="fill:none;stroke:#b0b0b0;stroke-linecap:square;stroke-width:0.8;"/>
     </g>
     <g id="line2d_78">
      <g>
       <use style="stroke:#000000;stroke-width:0.8;" x="184.32" xlink:href="#m237d2cf62a" y="416.310336"/>
      </g>
     </g>
     <g id="text_40">
      <!-- 55 -->
      <g transform="translate(164.595 420.109555)scale(0.1 -0.1)">
       <use xlink:href="#DejaVuSans-35"/>
       <use x="63.623047" xlink:href="#DejaVuSans-35"/>
      </g>
     </g>
    </g>
    <g id="ytick_13">
     <g id="line2d_79">
      <path clip-path="url(#pedaa6884ad)" d="M 184.32 393.047712 
L 1327.104 393.047712 
" style="fill:none;stroke:#b0b0b0;stroke-linecap:square;stroke-width:0.8;"/>
     </g>
     <g id="line2d_80">
      <g>
       <use style="stroke:#000000;stroke-width:0.8;" x="184.32" xlink:href="#m237d2cf62a" y="393.047712"/>
      </g>
     </g>
     <g id="text_41">
      <!-- 60 -->
      <g transform="translate(164.595 396.846931)scale(0.1 -0.1)">
       <use xlink:href="#DejaVuSans-36"/>
       <use x="63.623047" xlink:href="#DejaVuSans-30"/>
      </g>
     </g>
    </g>
    <g id="ytick_14">
     <g id="line2d_81">
      <path clip-path="url(#pedaa6884ad)" d="M 184.32 369.785088 
L 1327.104 369.785088 
" style="fill:none;stroke:#b0b0b0;stroke-linecap:square;stroke-width:0.8;"/>
     </g>
     <g id="line2d_82">
      <g>
       <use style="stroke:#000000;stroke-width:0.8;" x="184.32" xlink:href="#m237d2cf62a" y="369.785088"/>
      </g>
     </g>
     <g id="text_42">
      <!-- 65 -->
      <g transform="translate(164.595 373.584307)scale(0.1 -0.1)">
       <use xlink:href="#DejaVuSans-36"/>
       <use x="63.623047" xlink:href="#DejaVuSans-35"/>
      </g>
     </g>
    </g>
    <g id="ytick_15">
     <g id="line2d_83">
      <path clip-path="url(#pedaa6884ad)" d="M 184.32 346.522464 
L 1327.104 346.522464 
" style="fill:none;stroke:#b0b0b0;stroke-linecap:square;stroke-width:0.8;"/>
     </g>
     <g id="line2d_84">
      <g>
       <use style="stroke:#000000;stroke-width:0.8;" x="184.32" xlink:href="#m237d2cf62a" y="346.522464"/>
      </g>
     </g>
     <g id="text_43">
      <!-- 70 -->
      <g transform="translate(164.595 350.321683)scale(0.1 -0.1)">
       <use xlink:href="#DejaVuSans-37"/>
       <use x="63.623047" xlink:href="#DejaVuSans-30"/>
      </g>
     </g>
    </g>
    <g id="ytick_16">
     <g id="line2d_85">
      <path clip-path="url(#pedaa6884ad)" d="M 184.32 323.25984 
L 1327.104 323.25984 
" style="fill:none;stroke:#b0b0b0;stroke-linecap:square;stroke-width:0.8;"/>
     </g>
     <g id="line2d_86">
      <g>
       <use style="stroke:#000000;stroke-width:0.8;" x="184.32" xlink:href="#m237d2cf62a" y="323.25984"/>
      </g>
     </g>
     <g id="text_44">
      <!-- 75 -->
      <g transform="translate(164.595 327.059059)scale(0.1 -0.1)">
       <use xlink:href="#DejaVuSans-37"/>
       <use x="63.623047" xlink:href="#DejaVuSans-35"/>
      </g>
     </g>
    </g>
    <g id="ytick_17">
     <g id="line2d_87">
      <path clip-path="url(#pedaa6884ad)" d="M 184.32 299.997216 
L 1327.104 299.997216 
" style="fill:none;stroke:#b0b0b0;stroke-linecap:square;stroke-width:0.8;"/>
     </g>
     <g id="line2d_88">
      <g>
       <use style="stroke:#000000;stroke-width:0.8;" x="184.32" xlink:href="#m237d2cf62a" y="299.997216"/>
      </g>
     </g>
     <g id="text_45">
      <!-- 80 -->
      <g transform="translate(164.595 303.796435)scale(0.1 -0.1)">
       <use xlink:href="#DejaVuSans-38"/>
       <use x="63.623047" xlink:href="#DejaVuSans-30"/>
      </g>
     </g>
    </g>
    <g id="ytick_18">
     <g id="line2d_89">
      <path clip-path="url(#pedaa6884ad)" d="M 184.32 276.734592 
L 1327.104 276.734592 
" style="fill:none;stroke:#b0b0b0;stroke-linecap:square;stroke-width:0.8;"/>
     </g>
     <g id="line2d_90">
      <g>
       <use style="stroke:#000000;stroke-width:0.8;" x="184.32" xlink:href="#m237d2cf62a" y="276.734592"/>
      </g>
     </g>
     <g id="text_46">
      <!-- 85 -->
      <g transform="translate(164.595 280.533811)scale(0.1 -0.1)">
       <use xlink:href="#DejaVuSans-38"/>
       <use x="63.623047" xlink:href="#DejaVuSans-35"/>
      </g>
     </g>
    </g>
    <g id="ytick_19">
     <g id="line2d_91">
      <path clip-path="url(#pedaa6884ad)" d="M 184.32 253.471968 
L 1327.104 253.471968 
" style="fill:none;stroke:#b0b0b0;stroke-linecap:square;stroke-width:0.8;"/>
     </g>
     <g id="line2d_92">
      <g>
       <use style="stroke:#000000;stroke-width:0.8;" x="184.32" xlink:href="#m237d2cf62a" y="253.471968"/>
      </g>
     </g>
     <g id="text_47">
      <!-- 90 -->
      <g transform="translate(164.595 257.271187)scale(0.1 -0.1)">
       <use xlink:href="#DejaVuSans-39"/>
       <use x="63.623047" xlink:href="#DejaVuSans-30"/>
      </g>
     </g>
    </g>
    <g id="ytick_20">
     <g id="line2d_93">
      <path clip-path="url(#pedaa6884ad)" d="M 184.32 230.209344 
L 1327.104 230.209344 
" style="fill:none;stroke:#b0b0b0;stroke-linecap:square;stroke-width:0.8;"/>
     </g>
     <g id="line2d_94">
      <g>
       <use style="stroke:#000000;stroke-width:0.8;" x="184.32" xlink:href="#m237d2cf62a" y="230.209344"/>
      </g>
     </g>
     <g id="text_48">
      <!-- 95 -->
      <g transform="translate(164.595 234.008563)scale(0.1 -0.1)">
       <use xlink:href="#DejaVuSans-39"/>
       <use x="63.623047" xlink:href="#DejaVuSans-35"/>
      </g>
     </g>
    </g>
    <g id="ytick_21">
     <g id="line2d_95">
      <path clip-path="url(#pedaa6884ad)" d="M 184.32 206.94672 
L 1327.104 206.94672 
" style="fill:none;stroke:#b0b0b0;stroke-linecap:square;stroke-width:0.8;"/>
     </g>
     <g id="line2d_96">
      <g>
       <use style="stroke:#000000;stroke-width:0.8;" x="184.32" xlink:href="#m237d2cf62a" y="206.94672"/>
      </g>
     </g>
     <g id="text_49">
      <!-- 100 -->
      <g transform="translate(158.2325 210.745939)scale(0.1 -0.1)">
       <use xlink:href="#DejaVuSans-31"/>
       <use x="63.623047" xlink:href="#DejaVuSans-30"/>
       <use x="127.246094" xlink:href="#DejaVuSans-30"/>
      </g>
     </g>
    </g>
    <g id="ytick_22">
     <g id="line2d_97">
      <path clip-path="url(#pedaa6884ad)" d="M 184.32 183.684096 
L 1327.104 183.684096 
" style="fill:none;stroke:#b0b0b0;stroke-linecap:square;stroke-width:0.8;"/>
     </g>
     <g id="line2d_98">
      <g>
       <use style="stroke:#000000;stroke-width:0.8;" x="184.32" xlink:href="#m237d2cf62a" y="183.684096"/>
      </g>
     </g>
     <g id="text_50">
      <!-- 105 -->
      <g transform="translate(158.2325 187.483315)scale(0.1 -0.1)">
       <use xlink:href="#DejaVuSans-31"/>
       <use x="63.623047" xlink:href="#DejaVuSans-30"/>
       <use x="127.246094" xlink:href="#DejaVuSans-35"/>
      </g>
     </g>
    </g>
    <g id="ytick_23">
     <g id="line2d_99">
      <path clip-path="url(#pedaa6884ad)" d="M 184.32 160.421472 
L 1327.104 160.421472 
" style="fill:none;stroke:#b0b0b0;stroke-linecap:square;stroke-width:0.8;"/>
     </g>
     <g id="line2d_100">
      <g>
       <use style="stroke:#000000;stroke-width:0.8;" x="184.32" xlink:href="#m237d2cf62a" y="160.421472"/>
      </g>
     </g>
     <g id="text_51">
      <!-- 110 -->
      <g transform="translate(158.2325 164.220691)scale(0.1 -0.1)">
       <use xlink:href="#DejaVuSans-31"/>
       <use x="63.623047" xlink:href="#DejaVuSans-31"/>
       <use x="127.246094" xlink:href="#DejaVuSans-30"/>
      </g>
     </g>
    </g>
    <g id="ytick_24">
     <g id="line2d_101">
      <path clip-path="url(#pedaa6884ad)" d="M 184.32 137.158848 
L 1327.104 137.158848 
" style="fill:none;stroke:#b0b0b0;stroke-linecap:square;stroke-width:0.8;"/>
     </g>
     <g id="line2d_102">
      <g>
       <use style="stroke:#000000;stroke-width:0.8;" x="184.32" xlink:href="#m237d2cf62a" y="137.158848"/>
      </g>
     </g>
     <g id="text_52">
      <!-- 115 -->
      <g transform="translate(158.2325 140.958067)scale(0.1 -0.1)">
       <use xlink:href="#DejaVuSans-31"/>
       <use x="63.623047" xlink:href="#DejaVuSans-31"/>
       <use x="127.246094" xlink:href="#DejaVuSans-35"/>
      </g>
     </g>
    </g>
    <g id="ytick_25">
     <g id="line2d_103">
      <path clip-path="url(#pedaa6884ad)" d="M 184.32 113.896224 
L 1327.104 113.896224 
" style="fill:none;stroke:#b0b0b0;stroke-linecap:square;stroke-width:0.8;"/>
     </g>
     <g id="line2d_104">
      <g>
       <use style="stroke:#000000;stroke-width:0.8;" x="184.32" xlink:href="#m237d2cf62a" y="113.896224"/>
      </g>
     </g>
     <g id="text_53">
      <!-- 120 -->
      <g transform="translate(158.2325 117.695443)scale(0.1 -0.1)">
       <use xlink:href="#DejaVuSans-31"/>
       <use x="63.623047" xlink:href="#DejaVuSans-32"/>
       <use x="127.246094" xlink:href="#DejaVuSans-30"/>
      </g>
     </g>
    </g>
    <g id="text_54">
     <!-- atstumas, kilometrai -->
     <g transform="translate(152.152812 433.039837)rotate(-90)scale(0.1 -0.1)">
      <defs>
       <path d="M 1959 3097 
Q 1497 3097 1228 2736 
Q 959 2375 959 1747 
Q 959 1119 1226 758 
Q 1494 397 1959 397 
Q 2419 397 2687 759 
Q 2956 1122 2956 1747 
Q 2956 2369 2687 2733 
Q 2419 3097 1959 3097 
z
M 1959 3584 
Q 2709 3584 3137 3096 
Q 3566 2609 3566 1747 
Q 3566 888 3137 398 
Q 2709 -91 1959 -91 
Q 1206 -91 779 398 
Q 353 888 353 1747 
Q 353 2609 779 3096 
Q 1206 3584 1959 3584 
z
" id="DejaVuSans-6f" transform="scale(0.015625)"/>
       <path d="M 3597 1894 
L 3597 1613 
L 953 1613 
Q 991 1019 1311 708 
Q 1631 397 2203 397 
Q 2534 397 2845 478 
Q 3156 559 3463 722 
L 3463 178 
Q 3153 47 2828 -22 
Q 2503 -91 2169 -91 
Q 1331 -91 842 396 
Q 353 884 353 1716 
Q 353 2575 817 3079 
Q 1281 3584 2069 3584 
Q 2775 3584 3186 3129 
Q 3597 2675 3597 1894 
z
M 3022 2063 
Q 3016 2534 2758 2815 
Q 2500 3097 2075 3097 
Q 1594 3097 1305 2825 
Q 1016 2553 972 2059 
L 3022 2063 
z
" id="DejaVuSans-65" transform="scale(0.015625)"/>
       <path d="M 2631 2963 
Q 2534 3019 2420 3045 
Q 2306 3072 2169 3072 
Q 1681 3072 1420 2755 
Q 1159 2438 1159 1844 
L 1159 0 
L 581 0 
L 581 3500 
L 1159 3500 
L 1159 2956 
Q 1341 3275 1631 3429 
Q 1922 3584 2338 3584 
Q 2397 3584 2469 3576 
Q 2541 3569 2628 3553 
L 2631 2963 
z
" id="DejaVuSans-72" transform="scale(0.015625)"/>
      </defs>
      <use xlink:href="#DejaVuSans-61"/>
      <use x="61.279297" xlink:href="#DejaVuSans-74"/>
      <use x="100.488281" xlink:href="#DejaVuSans-73"/>
      <use x="152.587891" xlink:href="#DejaVuSans-74"/>
      <use x="191.796875" xlink:href="#DejaVuSans-75"/>
      <use x="255.175781" xlink:href="#DejaVuSans-6d"/>
      <use x="352.587891" xlink:href="#DejaVuSans-61"/>
      <use x="413.867188" xlink:href="#DejaVuSans-73"/>
      <use x="465.966797" xlink:href="#DejaVuSans-2c"/>
      <use x="497.753906" xlink:href="#DejaVuSans-20"/>
      <use x="529.541016" xlink:href="#DejaVuSans-6b"/>
      <use x="587.451172" xlink:href="#DejaVuSans-69"/>
      <use x="615.234375" xlink:href="#DejaVuSans-6c"/>
      <use x="643.017578" xlink:href="#DejaVuSans-6f"/>
      <use x="704.199219" xlink:href="#DejaVuSans-6d"/>
      <use x="801.611328" xlink:href="#DejaVuSans-65"/>
      <use x="863.134766" xlink:href="#DejaVuSans-74"/>
      <use x="902.34375" xlink:href="#DejaVuSans-72"/>
      <use x="943.457031" xlink:href="#DejaVuSans-61"/>
      <use x="1004.736328" xlink:href="#DejaVuSans-69"/>
     </g>
    </g>
   </g>
   <g id="line2d_105">
    <path clip-path="url(#pedaa6884ad)" d="M 184.32 672.1992 
L 184.707982 671.962781 
L 186.248154 671.022261 
L 186.694921 670.715388 
L 187.306287 670.330964 
L 193.278862 666.513509 
L 196.81773 664.300679 
L 197.440853 663.892232 
L 199.310222 662.684561 
L 207.869345 657.086111 
L 209.456545 655.950736 
L 210.596978 655.172438 
L 212.619188 653.836928 
L 213.054199 653.536799 
L 214.206388 652.747242 
L 214.817754 652.339677 
L 218.192024 650.238983 
L 218.92096 649.932948 
L 222.377529 647.485706 
L 222.918353 647.10748 
L 224.658394 645.856303 
L 235.533653 638.534761 
L 239.472261 635.8831 
L 239.801458 635.666012 
L 244.762927 632.318043 
L 245.691733 631.682029 
L 251.582009 627.821321 
L 252.017019 627.556642 
L 253.239751 626.812345 
L 259.318139 622.822433 
L 259.882477 622.469553 
L 260.317487 622.28203 
L 260.964124 622.147585 
L 261.222779 622.064903 
L 261.916444 621.93732 
L 265.596397 621.400298 
L 266.642773 620.792249 
L 272.615348 616.868436 
L 273.95565 615.961135 
L 275.519336 614.894053 
L 278.364539 613.027518 
L 283.079111 609.966788 
L 283.502364 609.832287 
L 284.595769 609.173215 
L 288.95763 606.495525 
L 295.235887 602.194212 
L 296.717274 601.204637 
L 300.056273 598.97341 
L 301.420089 598.090288 
L 304.265292 596.242944 
L 304.958957 595.776469 
L 305.652622 595.306062 
L 308.227413 593.592156 
L 309.873399 592.485419 
L 310.320166 592.175583 
L 312.283591 590.886312 
L 312.753873 590.579982 
L 313.435781 590.094073 
L 318.879289 586.648452 
L 319.302542 586.539044 
L 320.172563 586.077176 
L 320.442975 585.937207 
L 326.439064 581.59277 
L 340.594536 572.388043 
L 342.264036 571.251043 
L 344.062862 570.108447 
L 346.073316 568.825136 
L 347.907413 568.035563 
L 348.459994 567.838992 
L 349.130145 567.508797 
L 350.200036 566.815686 
L 351.340468 566.590519 
L 352.198732 566.443771 
L 352.974696 566.443771 
L 353.104024 565.41236 
L 353.221594 565.249332 
L 353.292136 565.032778 
L 353.444978 564.88403 
L 353.703633 564.724702 
L 354.126886 564.151526 
L 354.162157 564.151526 
L 354.279727 563.918866 
L 354.35027 563.918866 
L 354.479597 563.162451 
L 355.208533 563.08143 
L 356.525321 562.908444 
L 357.136687 562.763381 
L 358.982542 562.376893 
L 359.687964 561.958775 
L 360.710827 561.369155 
L 361.698418 560.715982 
L 366.695159 557.509937 
L 370.328083 555.341424 
L 373.913979 553.088977 
L 374.725215 552.616572 
L 376.665126 551.465947 
L 384.695182 546.702143 
L 386.317653 545.682216 
L 386.940776 545.458695 
L 387.575656 545.431355 
L 391.349665 545.227 
L 393.371876 543.98936 
L 393.677559 543.818064 
L 398.027662 541.143841 
L 399.273908 540.355916 
L 403.847396 537.450478 
L 407.315721 535.525257 
L 407.609647 535.418635 
L 408.091686 535.277991 
L 408.491425 535.126217 
L 408.726566 535.019325 
L 413.94669 531.179451 
L 419.625339 527.454201 
L 421.412409 526.311552 
L 422.035532 525.914078 
L 423.681517 524.845666 
L 425.386287 523.737788 
L 426.973487 522.881744 
L 435.767751 521.590887 
L 439.330133 519.103406 
L 440.400024 518.377075 
L 441.516942 517.624394 
L 444.10349 515.91832 
L 456.236753 508.050113 
L 458.482347 506.605232 
L 460.539828 505.350006 
L 460.774969 505.244123 
L 462.021215 504.431379 
L 470.462767 499.094382 
L 470.921292 498.975773 
L 474.26029 496.665043 
L 474.824628 496.296638 
L 478.081327 494.117474 
L 480.726661 492.264079 
L 481.737766 491.562272 
L 482.772385 490.829422 
L 486.275982 488.439386 
L 486.781535 488.083294 
L 487.827911 487.298345 
L 488.756717 486.663645 
L 489.203484 486.356822 
L 489.756065 485.982552 
L 490.579058 485.58935 
L 490.96704 485.546862 
L 491.225695 485.426377 
L 492.789381 484.381242 
L 493.953327 483.584995 
L 495.763911 482.35674 
L 502.147982 478.037242 
L 502.935704 477.539295 
L 503.958566 477.009351 
L 505.075484 476.310441 
L 505.581037 476.26249 
L 507.509191 476.057291 
L 508.449754 475.487425 
L 510.989274 474.175824 
L 511.459556 474.048943 
L 513.023241 473.038737 
L 514.4576 472.150467 
L 515.021938 471.771062 
L 516.550353 470.820206 
L 518.937031 469.300397 
L 519.466098 469.047334 
L 521.44128 467.795991 
L 523.922015 466.250396 
L 524.321754 466.200301 
L 529.530121 465.829046 
L 530.094459 465.507624 
L 531.293677 464.726569 
L 533.010204 463.717418 
L 533.409944 463.586897 
L 533.93901 463.302629 
L 534.326993 463.197763 
L 535.643781 462.238525 
L 537.278009 460.998692 
L 538.677096 459.909725 
L 541.675141 457.791694 
L 542.615704 457.120228 
L 546.107544 454.751264 
L 547.048107 454.148475 
L 548.188539 453.404743 
L 549.716954 452.408599 
L 551.574566 451.254509 
L 553.173523 450.309971 
L 556.300895 448.202913 
L 556.829961 448.109635 
L 558.040936 448.003066 
L 559.381239 447.103241 
L 563.519716 444.369051 
L 563.837156 444.1563 
L 565.036373 443.403665 
L 565.694767 443.252726 
L 566.729387 443.118046 
L 568.728083 441.983069 
L 571.620314 440.180828 
L 576.464213 437.185313 
L 577.31072 436.665887 
L 577.769244 436.393383 
L 578.074927 436.228488 
L 578.251283 436.143396 
L 578.415881 436.049346 
L 578.603994 435.605149 
L 579.086033 435.272608 
L 579.521043 434.880061 
L 580.014839 434.453205 
L 580.779046 433.842465 
L 580.908373 433.641301 
L 580.943644 433.641301 
L 581.061215 433.480724 
L 581.308113 433.381343 
L 581.43744 433.357906 
L 583.212753 433.261486 
L 583.600735 432.605173 
L 583.85939 432.07974 
L 584.023988 431.975242 
L 584.353185 431.248879 
L 584.917523 429.614686 
L 586.069713 429.416442 
L 586.375396 429.238912 
L 587.163117 428.768267 
L 587.551099 428.484803 
L 588.009624 428.109108 
L 589.843721 426.826502 
L 591.07821 426.076525 
L 592.265671 425.8667 
L 596.803887 425.146412 
L 597.438767 425.038173 
L 599.660847 424.761499 
L 601.365618 424.478686 
L 603.246744 424.085662 
L 604.563532 423.910707 
L 605.139627 423.837976 
L 608.53741 423.432778 
L 609.266347 423.325089 
L 610.877061 423.154665 
L 614.427686 421.029456 
L 615.250679 420.459837 
L 615.568119 420.25365 
L 616.826121 419.377131 
L 618.06061 418.503689 
L 619.671324 417.57194 
L 619.894708 417.455938 
L 620.694187 416.871434 
L 629.100468 411.386652 
L 629.653049 411.276025 
L 630.076302 411.165686 
L 630.75821 410.89969 
L 632.368924 409.909265 
L 633.285973 409.354811 
L 634.308836 409.158431 
L 635.884279 408.147711 
L 642.350649 404.076949 
L 651.803307 397.98601 
L 652.449944 397.862333 
L 656.376794 395.186371 
L 665.805938 388.999334 
L 668.662898 387.12313 
L 669.838601 386.470792 
L 671.625671 386.31554 
L 674.353304 385.891672 
L 688.755674 376.548298 
L 689.002572 376.417606 
L 691.683176 374.659561 
L 696.656403 371.504193 
L 698.13779 370.516539 
L 699.983644 369.446384 
L 700.453926 369.355974 
L 701.688415 369.120883 
L 703.992794 367.691689 
L 710.20051 363.664872 
L 713.433695 361.580014 
L 715.138465 360.485263 
L 715.667532 360.167093 
L 717.971911 358.707308 
L 718.642062 358.310463 
L 719.52384 357.863307 
L 719.735467 357.839371 
L 720.429132 357.73122 
L 721.122797 357.384021 
L 721.252124 357.272243 
L 723.074465 356.830056 
L 723.815159 356.327899 
L 723.944486 356.13091 
L 725.5552 355.94366 
L 725.67277 355.162554 
L 726.107781 354.321369 
L 726.531034 354.08264 
L 726.695633 353.968121 
L 726.883745 353.837888 
L 727.671467 353.433219 
L 727.930121 353.179 
L 728.306347 352.990459 
L 729.764219 352.422494 
L 730.128687 352.314802 
L 730.481399 352.12401 
L 730.704782 351.998779 
L 730.998708 351.876367 
L 731.116279 351.669017 
L 731.339662 351.57372 
L 731.46899 351.467256 
L 731.880486 351.112814 
L 732.080356 351.044304 
L 734.807988 350.967142 
L 734.925559 350.795908 
L 736.947769 350.192182 
L 737.676705 350.048097 
L 738.099959 349.970344 
L 741.662341 349.209299 
L 742.073837 348.975841 
L 742.767502 348.824848 
L 743.414139 348.68305 
L 745.283508 347.824297 
L 747.082335 346.74929 
L 749.704154 345.124161 
L 750.903372 344.404872 
L 755.406317 341.608593 
L 757.111087 340.568636 
L 757.710696 340.190824 
L 758.76883 339.530604 
L 759.52128 339.084201 
L 770.643437 332.34767 
L 771.196018 332.161909 
L 777.027508 328.396284 
L 777.603603 328.044555 
L 780.507591 326.251854 
L 780.813274 326.086023 
L 782.306418 325.467041 
L 784.058216 325.404165 
L 785.480818 325.294736 
L 785.962856 325.076927 
L 789.466453 323.117754 
L 791.994216 321.670565 
L 795.286187 319.903856 
L 796.015123 319.763943 
L 808.583396 312.131804 
L 809.030163 311.995703 
L 813.615407 309.181398 
L 814.885167 308.435336 
L 815.226121 308.24296 
L 820.822471 305.137523 
L 821.880604 305.022306 
L 825.490015 304.823006 
L 825.854483 304.755455 
L 829.910661 304.446808 
L 843.031514 296.941679 
L 844.054376 296.830035 
L 844.207218 296.71172 
L 845.441707 296.041514 
L 846.687953 295.175519 
L 849.145173 293.554554 
L 854.588681 290.220859 
L 855.964255 289.385585 
L 856.587378 289.025745 
L 860.420172 286.723836 
L 863.853227 286.446197 
L 883.287609 274.684481 
L 883.898975 274.372081 
L 884.839538 273.958707 
L 886.591336 272.836398 
L 886.81472 272.700696 
L 887.88461 272.014139 
L 889.777493 270.835105 
L 891.247123 269.92947 
L 891.682133 269.79897 
L 893.504474 269.688503 
L 895.726554 268.427682 
L 899.688676 266.137066 
L 900.593967 265.672371 
L 903.20403 264.269036 
L 903.674311 264.091658 
L 904.179864 263.934581 
L 904.70893 263.773368 
L 905.038127 263.601164 
L 906.072747 263.007845 
L 907.24845 262.372834 
L 911.328142 260.138171 
L 911.974779 259.966401 
L 912.786015 259.608047 
L 913.385624 259.539386 
L 913.703064 259.417955 
L 919.440498 256.220165 
L 920.122406 255.89244 
L 922.320972 254.569654 
L 923.20275 254.232802 
L 923.52019 254.106093 
L 924.543052 253.639703 
L 925.518886 253.35745 
L 927.799751 252.004747 
L 929.86899 250.738604 
L 930.339271 250.618705 
L 931.032936 250.201677 
L 932.32621 249.423784 
L 937.48755 246.376796 
L 938.098916 246.238634 
L 939.298133 245.548813 
L 944.894483 242.346041 
L 945.270708 242.21029 
L 946.081944 241.745962 
L 947.187105 241.100822 
L 948.104154 240.594448 
L 948.550921 240.35795 
L 948.891876 240.14223 
L 949.78541 239.607631 
L 951.631265 238.474285 
L 952.101547 238.148119 
L 952.901025 237.644883 
L 954.770394 236.586251 
L 955.652172 236.399718 
L 957.2864 236.077737 
L 958.650216 235.90088 
L 959.19104 235.79643 
L 959.896462 235.638781 
L 960.613641 235.272723 
L 961.589476 234.759263 
L 963.164919 233.853632 
L 972.582305 228.262077 
L 973.511111 227.989515 
L 973.722738 227.901175 
L 974.475188 227.68467 
L 975.674406 227.028164 
L 976.732539 226.361128 
L 977.743644 225.769369 
L 979.577742 224.724253 
L 980.306679 224.247337 
L 980.694661 224.022857 
L 981.164942 223.745693 
L 982.04672 223.210652 
L 982.940255 222.814075 
L 983.880818 222.7215 
L 984.821381 222.54117 
L 986.479123 222.106683 
L 988.654175 221.01081 
L 989.124456 220.770582 
L 991.910874 219.192009 
L 993.03955 218.646683 
L 993.956599 218.537424 
L 994.873647 218.191211 
L 996.084622 217.56506 
L 998.447787 216.243647 
L 998.941582 215.952847 
L 1000.164314 215.252199 
L 1000.705138 214.939576 
L 1001.257719 214.623247 
L 1002.057197 214.150025 
L 1003.232901 213.586919 
L 1003.738453 213.456167 
L 1004.291034 213.17371 
L 1005.360924 212.822516 
L 1006.336759 212.781513 
L 1008.206127 212.671487 
L 1009.170204 212.255533 
L 1010.886732 211.603047 
L 1012.250548 211.492441 
L 1018.023253 208.452497 
L 1018.293665 208.331339 
L 1019.116658 207.923922 
L 1019.563425 207.681473 
L 1020.668587 207.069038 
L 1021.679692 206.514764 
L 1023.184593 205.668104 
L 1023.807716 205.329985 
L 1024.513138 204.933476 
L 1025.665327 204.581138 
L 1026.852788 204.416068 
L 1032.672521 201.595101 
L 1033.201588 201.362895 
L 1034.659461 200.652079 
L 1036.258418 200.361972 
L 1038.010216 199.983569 
L 1038.891994 199.714012 
L 1039.138892 199.595402 
L 1044.78227 196.161548 
L 1045.123224 196.038522 
L 1046.675153 195.10086 
L 1048.19181 194.251178 
L 1051.201612 192.503772 
L 1051.519052 192.3627 
L 1051.860006 192.163898 
L 1052.777055 191.478605 
L 1054.575881 190.161572 
L 1054.928593 189.894072 
L 1059.231668 186.774809 
L 1059.984119 186.281978 
L 1060.595484 186.140676 
L 1063.240818 185.721999 
L 1063.240818 185.721999 
" style="fill:none;stroke:#a52a2a;stroke-linecap:square;stroke-width:1.5;"/>
   </g>
   <g id="patch_3">
    <path d="M 184.32 672.1992 
L 184.32 90.6336 
" style="fill:none;stroke:#000000;stroke-linecap:square;stroke-linejoin:miter;stroke-width:0.8;"/>
   </g>
   <g id="patch_4">
    <path d="M 1327.104 672.1992 
L 1327.104 90.6336 
" style="fill:none;stroke:#000000;stroke-linecap:square;stroke-linejoin:miter;stroke-width:0.8;"/>
   </g>
   <g id="patch_5">
    <path d="M 184.32 672.1992 
L 1327.104 672.1992 
" style="fill:none;stroke:#000000;stroke-linecap:square;stroke-linejoin:miter;stroke-width:0.8;"/>
   </g>
   <g id="patch_6">
    <path d="M 184.32 90.6336 
L 1327.104 90.6336 
" style="fill:none;stroke:#000000;stroke-linecap:square;stroke-linejoin:miter;stroke-width:0.8;"/>
   </g>
   <g id="text_55">
    <!-- Anyksciai_100: per laiką nukeliautas atstumas -->
    <g transform="translate(616.63575 84.6336)scale(0.12 -0.12)">
     <defs>
      <path d="M 2188 4044 
L 1331 1722 
L 3047 1722 
L 2188 4044 
z
M 1831 4666 
L 2547 4666 
L 4325 0 
L 3669 0 
L 3244 1197 
L 1141 1197 
L 716 0 
L 50 0 
L 1831 4666 
z
" id="DejaVuSans-41" transform="scale(0.015625)"/>
      <path d="M 2059 -325 
Q 1816 -950 1584 -1140 
Q 1353 -1331 966 -1331 
L 506 -1331 
L 506 -850 
L 844 -850 
Q 1081 -850 1212 -737 
Q 1344 -625 1503 -206 
L 1606 56 
L 191 3500 
L 800 3500 
L 1894 763 
L 2988 3500 
L 3597 3500 
L 2059 -325 
z
" id="DejaVuSans-79" transform="scale(0.015625)"/>
      <path d="M 3122 3366 
L 3122 2828 
Q 2878 2963 2633 3030 
Q 2388 3097 2138 3097 
Q 1578 3097 1268 2742 
Q 959 2388 959 1747 
Q 959 1106 1268 751 
Q 1578 397 2138 397 
Q 2388 397 2633 464 
Q 2878 531 3122 666 
L 3122 134 
Q 2881 22 2623 -34 
Q 2366 -91 2075 -91 
Q 1284 -91 818 406 
Q 353 903 353 1747 
Q 353 2603 823 3093 
Q 1294 3584 2113 3584 
Q 2378 3584 2631 3529 
Q 2884 3475 3122 3366 
z
" id="DejaVuSans-63" transform="scale(0.015625)"/>
      <path d="M 3263 -1063 
L 3263 -1509 
L -63 -1509 
L -63 -1063 
L 3263 -1063 
z
" id="DejaVuSans-5f" transform="scale(0.015625)"/>
      <path d="M 750 794 
L 1409 794 
L 1409 0 
L 750 0 
L 750 794 
z
M 750 3309 
L 1409 3309 
L 1409 2516 
L 750 2516 
L 750 3309 
z
" id="DejaVuSans-3a" transform="scale(0.015625)"/>
      <path d="M 1159 525 
L 1159 -1331 
L 581 -1331 
L 581 3500 
L 1159 3500 
L 1159 2969 
Q 1341 3281 1617 3432 
Q 1894 3584 2278 3584 
Q 2916 3584 3314 3078 
Q 3713 2572 3713 1747 
Q 3713 922 3314 415 
Q 2916 -91 2278 -91 
Q 1894 -91 1617 61 
Q 1341 213 1159 525 
z
M 3116 1747 
Q 3116 2381 2855 2742 
Q 2594 3103 2138 3103 
Q 1681 3103 1420 2742 
Q 1159 2381 1159 1747 
Q 1159 1113 1420 752 
Q 1681 391 2138 391 
Q 2594 391 2855 752 
Q 3116 1113 3116 1747 
z
" id="DejaVuSans-70" transform="scale(0.015625)"/>
      <path d="M 2194 1759 
Q 1497 1759 1228 1600 
Q 959 1441 959 1056 
Q 959 750 1161 570 
Q 1363 391 1709 391 
Q 2188 391 2477 730 
Q 2766 1069 2766 1631 
L 2766 1759 
L 2194 1759 
z
M 3341 1997 
L 3341 0 
L 2766 0 
L 2766 531 
Q 2569 213 2275 61 
Q 1981 -91 1556 -91 
Q 1019 -91 701 211 
Q 384 513 384 1019 
Q 384 1609 779 1909 
Q 1175 2209 1959 2209 
L 2766 2209 
L 2766 2266 
Q 2766 2663 2505 2880 
Q 2244 3097 1772 3097 
Q 1472 3097 1187 3025 
Q 903 2953 641 2809 
L 641 3341 
Q 956 3463 1253 3523 
Q 1550 3584 1831 3584 
Q 2591 3584 2966 3190 
Q 3341 2797 3341 1997 
z
M 2775 0 
L 3147 0 
Q 3006 -191 2939 -328 
Q 2872 -466 2872 -563 
Q 2872 -706 2958 -778 
Q 3044 -850 3213 -850 
Q 3313 -850 3409 -826 
Q 3506 -803 3603 -756 
L 3603 -1172 
Q 3484 -1203 3378 -1218 
Q 3272 -1234 3178 -1234 
Q 2797 -1234 2617 -1098 
Q 2438 -963 2438 -672 
Q 2438 -522 2520 -358 
Q 2603 -194 2775 0 
z
" id="DejaVuSans-105" transform="scale(0.015625)"/>
     </defs>
     <use xlink:href="#DejaVuSans-41"/>
     <use x="68.408203" xlink:href="#DejaVuSans-6e"/>
     <use x="131.787109" xlink:href="#DejaVuSans-79"/>
     <use x="190.966797" xlink:href="#DejaVuSans-6b"/>
     <use x="248.876953" xlink:href="#DejaVuSans-73"/>
     <use x="300.976562" xlink:href="#DejaVuSans-63"/>
     <use x="355.957031" xlink:href="#DejaVuSans-69"/>
     <use x="383.740234" xlink:href="#DejaVuSans-61"/>
     <use x="445.019531" xlink:href="#DejaVuSans-69"/>
     <use x="472.802734" xlink:href="#DejaVuSans-5f"/>
     <use x="522.802734" xlink:href="#DejaVuSans-31"/>
     <use x="586.425781" xlink:href="#DejaVuSans-30"/>
     <use x="650.048828" xlink:href="#DejaVuSans-30"/>
     <use x="713.671875" xlink:href="#DejaVuSans-3a"/>
     <use x="747.363281" xlink:href="#DejaVuSans-20"/>
     <use x="779.150391" xlink:href="#DejaVuSans-70"/>
     <use x="842.626953" xlink:href="#DejaVuSans-65"/>
     <use x="904.150391" xlink:href="#DejaVuSans-72"/>
     <use x="945.263672" xlink:href="#DejaVuSans-20"/>
     <use x="977.050781" xlink:href="#DejaVuSans-6c"/>
     <use x="1004.833984" xlink:href="#DejaVuSans-61"/>
     <use x="1066.113281" xlink:href="#DejaVuSans-69"/>
     <use x="1093.896484" xlink:href="#DejaVuSans-6b"/>
     <use x="1151.806641" xlink:href="#DejaVuSans-105"/>
     <use x="1213.085938" xlink:href="#DejaVuSans-20"/>
     <use x="1244.873047" xlink:href="#DejaVuSans-6e"/>
     <use x="1308.251953" xlink:href="#DejaVuSans-75"/>
     <use x="1371.630859" xlink:href="#DejaVuSans-6b"/>
     <use x="1425.916016" xlink:href="#DejaVuSans-65"/>
     <use x="1487.439453" xlink:href="#DejaVuSans-6c"/>
     <use x="1515.222656" xlink:href="#DejaVuSans-69"/>
     <use x="1543.005859" xlink:href="#DejaVuSans-61"/>
     <use x="1604.285156" xlink:href="#DejaVuSans-75"/>
     <use x="1667.664062" xlink:href="#DejaVuSans-74"/>
     <use x="1706.873047" xlink:href="#DejaVuSans-61"/>
     <use x="1768.152344" xlink:href="#DejaVuSans-73"/>
     <use x="1820.251953" xlink:href="#DejaVuSans-20"/>
     <use x="1852.039062" xlink:href="#DejaVuSans-61"/>
     <use x="1913.318359" xlink:href="#DejaVuSans-74"/>
     <use x="1952.527344" xlink:href="#DejaVuSans-73"/>
     <use x="2004.626953" xlink:href="#DejaVuSans-74"/>
     <use x="2043.835938" xlink:href="#DejaVuSans-75"/>
     <use x="2107.214844" xlink:href="#DejaVuSans-6d"/>
     <use x="2204.626953" xlink:href="#DejaVuSans-61"/>
     <use x="2265.90625" xlink:href="#DejaVuSans-73"/>
    </g>
   </g>
  </g>
 </g>
 <defs>
  <clipPath id="pedaa6884ad">
   <rect height="581.5656" width="1142.784" x="184.32" y="90.6336"/>
  </clipPath>
 </defs>
</svg>
